<svg id="Layer_1" data-name="Layer 1" xmlns="http://www.w3.org/2000/svg" viewBox="0 0 437 448">
  <defs>
    <style> .cls-1, .cls-2 { fill: #fbfbfb; } .cls-2 { fill-rule: evenodd; } </style>
  </defs>
  <title>GAAD logo (white)</title>

  <path class="cls-1" d="M103.12,188.9a20.93,20.93,0,0,0-2.24-6,14.68,14.68,0,0,0-3.94-4.48,9.48,9.48,0,0,0-5.79-1.77q-8,0-11.59,9T76,215.31q0,9.88.62,17.92a69.15,69.15,0,0,0,2.24,13.66,19.77,19.77,0,0,0,4.63,8.65,10.8,10.8,0,0,0,12.2,1.93,14.54,14.54,0,0,0,4.48-3.24,17.65,17.65,0,0,0,3.48-5.48,20.2,20.2,0,0,0,1.39-7.8V229.67H90.38V213.3h36v59.46H110V262.57h-.31a23.51,23.51,0,0,1-9.65,9.19,31,31,0,0,1-13.51,2.7q-10.2,0-16.61-3.55a24.31,24.31,0,0,1-10-11A56,56,0,0,1,55,241.64a225.11,225.11,0,0,1-1.24-25.25A148.34,148.34,0,0,1,55.55,192a48.8,48.8,0,0,1,6.1-17.53,27.88,27.88,0,0,1,11.43-10.58q7.1-3.54,17.76-3.55,18.22,0,26.25,9t8,25.87H103.81A30.44,30.44,0,0,0,103.12,188.9Z"
  />
  <path class="cls-1" d="M189.68,162.49l29.19,110.27H195.7l-5.09-23.32H161.26l-5.09,23.32H133l29.19-110.27Zm-2.93,68.73-10.66-49.58h-.31l-10.66,49.58Z"/>
  <path class="cls-1" d="M275.55,162.49l29.19,110.27H281.57l-5.1-23.32H247.13L242,272.76H218.87l29.19-110.27Zm-2.94,68.73L262,181.64h-.31L251,231.22Z"/>
  <path class="cls-1" d="M350,162.49q11.58,0,18.69,3.79a26.92,26.92,0,0,1,11,10.81A48.2,48.2,0,0,1,385.05,194a160.63,160.63,0,0,1,1.38,22.08,157.16,157.16,0,0,1-1.77,25.25q-1.79,10.74-6.1,17.68A26.79,26.79,0,0,1,367,269.36q-7.28,3.4-18.38,3.4H313.54V162.49Zm-4.33,93.9a19.18,19.18,0,0,0,9.42-2,13.79,13.79,0,0,0,5.64-6.65,38.73,38.73,0,0,0,2.78-12.2q.69-7.56.7-18.84,0-9.42-.62-16.53A41,41,0,0,0,361,188.36a14.68,14.68,0,0,0-5.71-7.1q-3.79-2.4-10.12-2.39h-9.42v77.52Z"/>
  <path class="cls-2" d="M218.31,18.52c-110.28,0-200,89.72-200,200s89.72,200,200,200a199.59,199.59,0,0,0,66.06-11.21l12.86,17.06a12.38,12.38,0,0,0,17.3,2.44L385,373.74a12.39,12.39,0,0,0,2.43-17.3l-29.87-39.65a12.39,12.39,0,0,0-17.3-2.43L269.8,367.43a12.38,12.38,0,0,0-2.44,17.3l7.23,9.59a184.29,184.29,0,0,1-56.28,8.76c-101.77,0-184.56-82.79-184.56-184.56S116.54,34,218.31,34s184.55,82.79,184.55,184.56a183.82,183.82,0,0,1-12.42,66.7l14.4,5.58a199.21,199.21,0,0,0,13.46-72.28C418.3,108.24,328.58,18.52,218.31,18.52Zm65.76,368.24L293,380l6.73,8.93-8.93,6.74Zm34-6.17,8.94-6.74,6.73,8.94-8.93,6.73Zm3.31,11.46-8.93,6.73-6.73-8.93,8.94-6.73Zm9-20.73,8.94-6.73,6.72,8.93-8.93,6.73Zm11.6-9.27,8.93-6.73,6.73,8.93L348.73,371Zm-2.54-3.42-6.73-8.93,8.94-6.73,6.72,8.93Zm-2.66,2.53-8.94,6.74L321.13,359l8.94-6.74Zm-12.36,9.27-8.93,6.73-6.73-8.93,8.94-6.73Zm-12.35,9.27-8.94,6.73-6.73-8.93,8.94-6.73Zm-18.76,19.42,8.94-6.73,6.73,8.93-8.93,6.73Zm15.09,21.72-6.73-8.94,12.72-9.58,6.73,8.93Zm16.76-12.63-6.73-8.93L356,371l6.73,8.93Zm54.25-40.87-12.32,9.28-6.72-8.93,12.31-9.28ZM370,355l-8.94,6.73-6.73-8.93,8.94-6.73Zm-9.27-12.36-8.93,6.73-6.73-8.93L354,333.7Zm-16-21.28,6.72,8.93L342.55,337l-6.73-8.93Zm-12.36,9.26,6.73,8.93-8.93,6.74-6.74-8.94Zm-11.6,9.27,6.73,8.93-8.93,6.73-6.73-8.93Zm-12.35,9.26,6.72,8.94-8.93,6.73-6.73-8.93Zm-12.36,9.27,6.73,8.93-8.93,6.73-6.73-8.93Zm-12.35,9.27,6.72,8.93-8.93,6.73-6.73-8.93Z"
  />
</svg>
